HIERARCHY
ROOT Hips
{
	OFFSET -0.255980812423 -22.9265508237 2.34844033744
	CHANNELS 6 Xposition Yposition Zposition Zrotation Yrotation Xrotation
	JOINT LeftHip
	{
		OFFSET 6.5768664497 -8.96636232643 -0.84198325116
		CHANNELS 3 Zrotation Yrotation Xrotation
		JOINT LeftKnee
		{
			OFFSET 3.55933660268 -36.8674513657 -0.102446375667
			CHANNELS 3 Zrotation Yrotation Xrotation
			JOINT LeftFoot
			{
				OFFSET -1.39171575652 -38.7514746652 -4.14774324439
				CHANNELS 3 Zrotation Yrotation Xrotation
				End LeftToe
				{
                                  OFFSET 2.62952419479 -5.42722022749 11.7958810321
				}
			}
		}
	}
	JOINT RightHip
	{
		OFFSET -6.40269555161 -8.85238810407 -0.650302468296
		CHANNELS 3 Zrotation Yrotation Xrotation
		JOINT RightKnee
		{
			OFFSET -3.86591909836 -37.6168407253 -0.586649507865
			CHANNELS 3 Zrotation Yrotation Xrotation
			JOINT RightFoot
			{
				OFFSET 1.61360134218 -38.7761916221 -3.98945284598
				CHANNELS 3 Zrotation Yrotation Xrotation
				End RightToe
				{
                                        OFFSET -2.39172278931 -4.72872018644 12.1912162488
				}
			}
		}
	}
	JOINT Waist
	{
		OFFSET -0.263292414623 10.8016597471 -2.43628871856
		CHANNELS 3 Zrotation Yrotation Xrotation
		JOINT Spine
		{
			OFFSET 0.643584127379 14.0835544469 0.419210252379
			CHANNELS 3 Zrotation Yrotation Xrotation
                        JOINT Chest
                        {
                            OFFSET 0.133442024286 5.43924000013 2.26295779162
                            CHANNELS 3 Zrotation Yrotation Xrotation
                            JOINT Neck
                            {
                                OFFSET -0.371426517392 21.2711519749 -3.91949836265
                                CHANNELS 3 Zrotation Yrotation Xrotation
                                End Head
                                {
                                        OFFSET 0.121023251135 26.8870238736 2.0289167937
                                }
                            }
                            JOINT LeftInnerShoulder
                            {
                                OFFSET 7.80987967271 12.0248034519 -3.10370248123
                                CHANNELS 3 Zrotation Yrotation Xrotation
                                JOINT LeftShoulder
                                {
                                        OFFSET 9.21188962483 2.90422694214 -0.858345129326
                                        CHANNELS 3 Zrotation Yrotation Xrotation
                                        JOINT LeftElbow
                                        {
                                                OFFSET 25.433761678 -1.23494194579 -2.52906519149
                                                CHANNELS 3 Zrotation Yrotation Xrotation
                                                End LeftWrist
                                                {
                                                        OFFSET 24.4044009463 0.788639732417 -0.196553345788
                                                }
                                        }
                                }
                            }
                            JOINT RightInnerShoulder
                            {
                                OFFSET -8.17054197095 11.6899308867 -3.55092664691
                                CHANNELS 3 Zrotation Yrotation Xrotation
                                JOINT RightShoulder
                                {
                                        OFFSET -9.71177422235 3.1783974832 -0.86671839421
                                        CHANNELS 3 Zrotation Yrotation Xrotation
                                        JOINT RightElbow
                                        {
                                                OFFSET -24.7386409666 -1.27745408803 -1.96163634717
                                                CHANNELS 3 Zrotation Yrotation Xrotation
                                                End RightWrist
                                                {
                                                        OFFSET -24.9255795176 0.599564738442 -0.650340218677
                                                }
                                        }
                                }
                            }
                        }
                }
            }
}
MOTION
Frames: 16
Frame Time: 0.0333333333333
0.00000 0.00000 0.00000 -0.80520 -0.19872 -9.86405 36.10743 17.95407 -27.16716 -13.67352 -2.45343 65.72678 -12.04230 10.04261 -19.37035 -29.13138 -18.80199 -23.56038 13.28859 -0.09750 71.39428 10.85399 -2.15135 -28.93899 0.80588 1.21991 17.49053 0.54337 0.21755 -1.56564 0.32666 -1.64538 5.82818 -7.34183 13.26111 -2.83607 -7.07357 6.70868 2.15465 -46.88387 -5.71489 1.39119 0.07555 -35.10687 11.29770 6.96468 -8.26321 1.32277 45.12735 4.55678 3.49804 -27.75484 47.78204 -17.61529
8.55747 -0.26129 0.08353 -2.26383 2.81617 -11.14305 36.74983 19.14773 -28.09473 -13.27919 1.16544 67.48088 -12.40333 12.37331 -24.62520 -30.90175 -19.71925 -21.11276 11.59730 0.32804 72.31679 13.90094 -4.74188 -25.87928 -0.39624 1.89057 19.19988 0.54602 -0.48824 -1.36642 0.14739 -1.41658 4.66391 -8.20619 15.29485 -2.01642 -5.35905 3.18461 1.59440 -32.54671 -5.74987 -5.17013 -1.98733 -32.59656 7.67138 5.35087 -7.64430 1.29736 36.02163 1.61017 -1.28050 -26.47421 45.58941 -16.41670
17.86357 -0.94459 0.21240 -6.43399 5.03455 -10.48577 36.68926 17.66061 -29.28379 -15.02973 1.18335 73.45273 -11.83522 12.56630 -26.53108 -31.11701 -19.22794 -17.71438 12.15406 2.78363 69.59222 16.55325 -7.06124 -21.58134 -1.73598 2.37419 16.15316 0.24295 -1.79117 -2.06296 -0.35738 -1.91943 5.23952 -6.63232 15.79864 -1.95770 -0.63210 3.13061 0.87617 -25.49221 -4.36669 -7.69474 -4.10344 -31.14181 6.49787 1.23955 -8.09203 -0.95544 32.47013 2.62510 -2.91045 -20.98809 40.64564 -14.74858
37.82296 1.34552 0.31643 -12.76464 12.48511 -10.96870 34.43833 15.26322 -37.70274 -11.97889 0.27645 79.68352 -11.53996 15.37428 -18.74821 -33.45079 -18.70910 -8.83121 10.05131 7.45803 57.30210 17.55313 -13.22731 -12.19127 0.09959 3.72664 17.67049 -0.97615 -2.69956 -4.86891 -0.12961 -1.85180 5.25142 -8.79636 11.56877 -3.94948 2.58982 0.81436 -2.51256 -12.64106 -8.95302 -9.17376 -6.74301 -31.77327 9.59989 -2.54163 -8.38985 -2.37539 16.14520 -3.37299 -8.75293 -9.44193 21.33839 -17.86216
45.54597 3.37684 0.32266 -15.31611 20.69719 -11.84646 32.45344 13.41790 -40.57725 -10.87935 -0.12710 77.65657 -12.05750 15.69298 -15.75086 -31.04185 -16.35084 -4.89164 10.60089 9.40017 56.63878 17.22978 -14.48025 -13.57588 -0.81086 2.53090 17.97745 -2.07394 -5.41455 -5.42971 -0.76416 -3.03376 5.96424 -10.84858 7.26929 -5.35634 6.46123 0.41988 -2.98174 -10.94002 -8.92280 -10.14370 -5.27998 -36.36405 6.01216 -6.15553 -9.11593 -4.14076 13.98512 -4.84009 -12.75510 -12.59000 19.04206 -29.28633
53.48078 6.83256 0.34025 -15.35607 21.03288 -12.70567 30.60491 11.54122 -32.66465 -14.13132 -2.44096 74.07805 -10.85481 15.31330 -18.92101 -27.39686 -13.45400 -17.47960 10.73709 10.55273 68.77482 17.89563 -18.03628 -18.32012 -1.01056 -1.20615 18.75100 -5.24912 -3.71680 -5.45494 -2.99387 -3.49577 5.40472 -12.24523 7.96298 -6.73042 3.52773 0.58827 -3.92071 -5.03503 -6.78442 -13.19972 1.86256 -34.81013 -4.98789 -7.07771 -7.18452 -6.62647 7.19294 -4.16315 -13.09547 -10.34044 19.64193 -29.73523
63.22362 11.54623 0.28325 -18.45149 24.41144 -15.85777 28.94190 9.78912 -28.59538 -12.79214 -3.31362 68.01266 -9.66587 16.37975 -15.53656 -21.25570 -12.53137 -19.58157 8.89683 7.01778 67.95178 14.96258 -18.09603 -12.50914 -1.97718 -2.97461 17.13345 -5.87864 -4.17253 -4.59377 -3.42855 -3.90435 5.92066 -12.86241 2.61590 -1.15290 7.75379 4.02969 -3.27742 -11.57797 -6.69718 -12.33884 8.94029 -41.51956 -5.95902 -11.89031 -7.11280 -7.75416 7.49363 0.98442 -16.83119 -10.62107 14.29784 -26.42177
72.86561 18.03223 0.16720 -21.84045 32.20348 -20.15262 27.19424 9.81699 -23.63197 -8.15152 -3.25858 55.68338 -11.81465 19.55535 -9.06857 -12.90051 -8.97532 -19.31974 8.10720 5.30250 67.44854 10.74681 -19.97856 -14.27208 -3.72805 -4.42207 18.58898 -6.34172 -5.37086 -2.90021 -3.20248 -4.89285 6.21689 -10.13940 3.46166 -1.46263 7.22135 2.13544 -4.04605 -10.44651 -7.88120 -13.05572 13.65855 -41.88666 -14.34905 -13.16863 -5.44182 -9.23705 2.81502 4.01631 -20.29278 -12.51807 11.13375 -33.42040
91.43703 21.78253 -0.06650 -20.67420 44.06801 -18.99533 19.01755 6.02607 -22.90148 -8.45600 -3.99906 51.98669 -2.86692 21.01527 -11.55432 -2.78611 -4.56040 -36.20242 5.25751 -0.42114 81.67899 11.10433 -26.29319 -18.14035 -5.62305 -6.29911 20.84967 -11.47712 -3.50359 -8.02976 -6.33055 -4.68622 7.80402 -9.65509 -5.58617 0.83848 8.93703 -0.12412 -7.43798 -13.32923 -16.17844 -12.18223 20.32031 -49.12887 -14.14234 -22.00895 -5.37810 -12.26308 -0.98827 1.62853 -21.18448 -11.80471 7.53865 -26.78759
96.42997 20.81098 -0.04805 -18.09231 54.45250 -16.24949 16.14128 3.73546 -32.25750 -8.19603 -0.09668 59.21927 2.28430 22.10104 -16.04526 2.99226 0.19764 -47.18143 3.41241 -4.78608 81.10779 12.14428 -27.38366 -18.51395 -7.13019 -6.67852 25.72377 -14.41680 -5.01776 -12.09177 -7.86631 -4.80430 7.49687 -15.05265 -9.80825 0.28385 9.49652 -4.12925 -10.47085 -13.16429 -19.98613 -10.41122 20.02754 -48.70257 -20.82142 -25.93030 -3.79237 -14.88018 -11.57399 0.20010 -27.06280 -10.22489 2.22286 -36.42594
101.23890 19.80007 0.00167 -26.18972 69.13158 -25.20870 16.03249 11.43904 -40.39326 -5.70086 11.64774 61.14786 4.89331 20.82573 -15.75537 5.06690 2.56855 -54.26007 5.04474 -4.63086 72.04908 10.44189 -20.20188 -13.67343 -7.44925 -8.30123 30.96062 -14.85886 -7.23085 -12.69489 -8.21927 -6.09999 7.69367 -16.90460 -13.23175 4.71266 12.00667 -6.39194 -10.44694 -20.81576 -24.13281 -10.31513 28.20368 -50.52232 -26.84333 -31.25952 -4.17782 -16.35914 -12.06964 4.10040 -34.75660 -14.21306 -0.98669 -42.62403
110.13875 11.81569 0.16857 -108.78699 79.82792 -107.45887 11.81677 19.40181 -34.19890 -5.72078 23.68032 47.78775 4.49869 20.32193 -14.98077 0.38320 2.05820 -58.26661 7.43511 0.83258 61.45968 12.36570 -10.84078 -8.06464 -4.24238 -12.72406 33.71813 -12.41739 -7.88172 -9.62373 -6.96594 -8.18724 6.57180 -15.57006 -12.93503 6.89652 10.39748 -15.36065 -9.66683 -21.18084 -25.79252 -9.22685 22.68202 -53.30200 -15.80042 -34.80134 -1.16722 -17.13568 -15.42785 0.87530 -37.80631 -17.36142 2.28664 -43.49511
122.23745 7.85761 0.21822 -158.05960 66.06856 -160.26327 16.47941 26.94979 -24.51632 -3.06884 30.49762 53.95829 3.29145 20.27609 -19.23492 -6.53339 -2.26613 -50.52599 8.87197 8.57303 45.70229 16.50258 -4.05668 -0.86402 -1.16243 -13.98775 33.17385 -11.79172 -8.54879 -1.73518 -5.21699 -8.98928 4.44863 -9.84723 -4.44552 8.57053 3.15896 -25.92953 -7.10478 -19.69231 -26.67906 -9.36162 10.87558 -48.51617 -4.67374 -35.87921 5.09978 -16.00000 -19.58209 -3.36151 -39.57166 -16.01391 6.38735 -47.25720
151.40972 6.32128 0.17604 -169.48389 52.17340 -171.98081 16.82117 19.66526 -30.58778 0.32621 23.92643 62.17776 -0.33835 14.40684 -8.27567 -12.83974 -2.42375 -33.79406 -1.84270 18.65497 12.85687 22.43877 -5.25022 15.99225 1.82124 -9.31180 30.40657 -12.63234 -6.99221 2.28035 -4.56479 -6.23397 3.75392 -10.27321 -10.27864 10.65546 -2.20508 -24.04444 -3.49158 -37.83962 -28.14475 0.72789 8.60599 -52.29403 -1.10590 -35.33025 7.26540 -12.61865 -9.99079 0.60011 -36.50747 -27.20167 16.07597 -56.01355
154.63959 -0.75013 0.13016 -174.51591 31.90039 179.03652 17.92271 14.03940 -22.03881 -5.57273 8.70564 52.16074 -8.85905 12.32911 -2.39324 -20.07978 -3.30811 -21.65999 -3.11965 23.94576 13.81347 18.46398 -8.00120 2.64995 7.17015 -8.88595 28.24292 -12.92262 -2.85823 9.69799 -4.33963 -3.83752 4.06851 -9.71758 -18.57659 9.12006 -9.14707 -25.22547 -1.23264 -36.44186 -27.70595 7.19292 -0.13684 -49.94443 5.27777 -32.56181 14.51383 -10.57255 -19.92726 -11.14124 -35.61502 -8.45179 9.47074 -52.10689
172.52176 -6.02203 0.05037 -176.74389 13.17564 177.43324 17.91408 8.15502 -18.01020 -3.26477 -0.14855 37.61345 -13.31586 15.88304 1.61870 -21.19082 -1.64052 -18.52707 1.55153 22.49569 30.69820 11.87253 -9.02615 -4.13781 8.34364 -8.01467 25.14503 -10.64004 0.53922 9.19031 -2.39805 -3.23377 4.07743 -5.81490 -22.88007 7.43145 -15.28027 -13.90223 0.89054 -45.43440 -18.12617 16.29764 1.20278 -52.37662 4.71489 -24.42798 13.83445 -9.45458 -22.69529 -6.65325 -35.02008 -5.26262 3.88938 -62.61447
